<svg xmlns="http://www.w3.org/2000/svg" version="1.1" xmlns:xlink="http://www.w3.org/1999/xlink" viewBox="0 0 14.847310482254704 14.839083273551752"><g transform="matrix(0.8571089138931979,0,0,0.8571089138931979,2.1209605231806865,11.519186622771132)"><g transform="matrix(1,0,0,1,0,0)" clip-path="url(#SvgjsClipPath113315)"><g clip-path="url(#SvgjsClipPath1133135d6c3d2b-95aa-4b62-a85f-e07cdb515c66)"><path d=" M 0.8613668136164903 -7.03430622477058 C 0.9962225736394964 -7.537579901461365 1.5133003149733424 -7.83645348085126 2.016708161127471 -7.702099433306364 C 2.5199818378182712 -7.567243673283327 2.818855417208174 -7.050165931949489 2.684501369663278 -6.546758085795346 C 2.5496456096402413 -6.04348440910456 2.032567868306395 -5.744610829714666 1.5291600221522668 -5.878964877259561 C 1.025886345461497 -6.013820637282598 0.7270127660715945 -6.5308983786164365 0.8613668136164903 -7.03430622477058 Z" fill="url(#gradient-8eca9f1b-25a7-40c0-93cf-6614747837fd_0)" transform="matrix(1,0,0,1,0,0)" fill-rule="evenodd"></path></g><g clip-path="url(#SvgjsClipPath1133135d6c3d2b-95aa-4b62-a85f-e07cdb515c66)"><path d=" M 4.324436018943644 -6.106487342114671 C 4.38986722550944 -6.336395450630751 4.625823389931035 -6.473001651085346 4.857784134610499 -6.415267830132325 C 5.087692243126586 -6.349836623566529 5.224298443581167 -6.11388045914495 5.166564622628146 -5.881919714465471 C 5.101133416062365 -5.652011605949391 4.865177251640786 -5.515405405494803 4.633216506961321 -5.573139226447816 C 4.403308398445203 -5.63857043301362 4.2667021979906234 -5.8745265974351915 4.324436018943644 -6.106487342114671 Z" fill="url(#gradient-8eca9f1b-25a7-40c0-93cf-6614747837fd_1)" transform="matrix(1,0,0,1,0,0)" fill-rule="evenodd"></path></g><g clip-path="url(#SvgjsClipPath1133135d6c3d2b-95aa-4b62-a85f-e07cdb515c66)"><path d=" M 2.7376884393696708 -5.607119854315793 C 2.7376884450477776 -5.988171206164733 3.0465915956630965 -6.297074347574009 3.4276429372309156 -6.297074341895903 C 3.808694268517569 -6.297074341895903 4.117597414529859 -5.988171195883613 4.117597414529859 -5.607119854315793 C 4.116782692649515 -5.226645608015614 3.8081180455431736 -4.918641913044411 3.42764292694975 -4.918642785338638 C 3.047167808356387 -4.918641913044411 2.738503161250031 -5.226645608015622 2.737688439369686 -5.607119854315793 Z" fill="url(#gradient-8eca9f1b-25a7-40c0-93cf-6614747837fd_2)" transform="matrix(1,0,0,1,0,0)" fill-rule="evenodd"></path></g><g clip-path="url(#SvgjsClipPath1133135d6c3d2b-95aa-4b62-a85f-e07cdb515c66)"><path d=" M 7.613169829122059 -10.933213917969534 C 8.116443505812828 -10.798358157946504 8.41531708520273 -10.281280416612661 8.280963037657836 -9.777872570458518 C 8.2162163495591 -9.535850062222123 8.057924294836628 -9.329488325501222 7.8409481002652575 -9.204235145493225 C 7.623971905693871 -9.078981965485232 7.366107135116746 -9.045110132556792 7.12414427154387 -9.11007936192273 C 6.623996731170379 -9.24756197108605 6.328442388754599 -9.762802911770688 6.462260737419896 -10.263943290830795 C 6.596518021878923 -10.765612710931478 7.110753407751464 -11.064648179224488 7.613169829122059 -10.933213917969534 Z" fill="url(#gradient-8eca9f1b-25a7-40c0-93cf-6614747837fd_3)" transform="matrix(1,0,0,1,0,0)" fill-rule="evenodd"></path></g><g clip-path="url(#SvgjsClipPath1133135d6c3d2b-95aa-4b62-a85f-e07cdb515c66)"><path d=" M 6.6853509464661505 -7.470144712642384 C 6.915259054982237 -7.404713506076588 7.051865255436833 -7.168757341655008 6.994131434483812 -6.936796596975529 C 6.928700227918031 -6.706888488459464 6.692744063496437 -6.570282288004869 6.460783318816972 -6.628016108957882 C 6.23087521030087 -6.693447315523685 6.094269009846275 -6.9294034799452575 6.1520028307992956 -7.161364224624744 C 6.2174340373651065 -7.391272333140808 6.453390201786686 -7.527878533595404 6.6853509464661505 -7.470144712642384 Z" fill="url(#gradient-8eca9f1b-25a7-40c0-93cf-6614747837fd_4)" transform="matrix(1,0,0,1,0,0)" fill-rule="evenodd"></path></g><g clip-path="url(#SvgjsClipPath1133135d6c3d2b-95aa-4b62-a85f-e07cdb515c66)"><path d=" M 6.87593794624738 -8.366937804636235 C 6.87593794624738 -7.985886428453951 6.567034834849555 -7.676983317056125 6.1859834586672715 -7.676983317056125 C 5.804932082484989 -7.676983317056125 5.496028971087162 -7.985886428453951 5.496028971087162 -8.366937804636235 C 5.496028971087162 -8.747989180818518 5.804932082484989 -9.056892292216343 6.1859834586672715 -9.056892292216343 C 6.567034834849555 -9.056892292216343 6.87593794624738 -8.747989180818518 6.87593794624738 -8.366937804636235 Z" fill="url(#gradient-8eca9f1b-25a7-40c0-93cf-6614747837fd_5)" transform="matrix(1,0,0,1,0,0)" fill-rule="nonzero"></path></g><g clip-path="url(#SvgjsClipPath1133135d6c3d2b-95aa-4b62-a85f-e07cdb515c66)"><path d=" M 3.4305977641557046 -10.382136779067217 C 3.6471525244505507 -10.507698488305145 3.904807723849232 -10.541812637555916 4.146577213246083 -10.476934127786576 C 4.388346702642933 -10.412055618017238 4.594307488751641 -10.253530757059202 4.718906785932683 -10.03642082597568 C 4.84446849517061 -9.81986606568085 4.878582644421374 -9.562210866282161 4.813704134652047 -9.320441376885311 C 4.748825624882705 -9.078671887488458 4.590300763924684 -8.87271110137974 4.373190832841143 -8.748111804198691 C 4.156722713676025 -8.622828695497219 3.899337386637863 -8.588713589286915 3.657705958170078 -8.653277950333925 C 3.4160745297022928 -8.717842311380938 3.210009334395398 -8.875792247529771 3.08488181106415 -9.092350338687268 C 2.959251668133337 -9.309130326719545 2.9250985651887977 -9.567008240985537 2.9899670766493287 -9.809017687588332 C 3.0548355881098748 -10.051027134191134 3.213387422276699 -10.257252178715936 3.43059776415572 -10.382136779067217 Z" fill="url(#gradient-8eca9f1b-25a7-40c0-93cf-6614747837fd_6)" transform="matrix(1,0,0,1,0,0)" fill-rule="evenodd"></path></g><g clip-path="url(#SvgjsClipPath1133135d6c3d2b-95aa-4b62-a85f-e07cdb515c66)"><path d=" M 5.2227065295404325 -7.278080294258205 C 5.4306906731582005 -7.391303860008157 5.690939909726128 -7.32103656613482 5.813673970722544 -7.118519085139041 C 5.926897536472481 -6.910534941521265 5.856630242599129 -6.650285704953352 5.654112761603364 -6.527551643956929 C 5.446128617985596 -6.414328078206984 5.185879381417668 -6.484595372080321 5.063145320421253 -6.6871128530761 C 4.949921754671316 -6.895096996693869 5.020189048544652 -7.155346233261781 5.2227065295404325 -7.278080294258205 Z" fill="url(#gradient-8eca9f1b-25a7-40c0-93cf-6614747837fd_7)" transform="matrix(1,0,0,1,0,0)" fill-rule="evenodd"></path></g><g clip-path="url(#SvgjsClipPath1133135d6c3d2b-95aa-4b62-a85f-e07cdb515c66)"><path d=" M 3.7482427637910782 -8.047815386397897 C 4.017612611563306 -8.316828515700404 4.453969193969333 -8.316828515700404 4.723339041741562 -8.047815386397897 C 4.992352171044069 -7.778445538625675 4.992352171044069 -7.342088956219641 4.723339041741562 -7.07271910844742 C 4.453969193969333 -6.803705979144913 4.017612611563306 -6.803705979144913 3.7482427637910782 -7.07271910844742 C 3.479229634488571 -7.342088956219641 3.479229634488571 -7.778445538625675 3.7482427637910782 -8.047815386397897 Z" fill="url(#gradient-8eca9f1b-25a7-40c0-93cf-6614747837fd_8)" transform="matrix(1,0,0,1,0,0)" fill-rule="evenodd"></path></g><g clip-path="url(#SvgjsClipPath1133135d6c3d2b-95aa-4b62-a85f-e07cdb515c66)"><path d=" M 10.961000383418684 -8.363982967430323 C 11.0862298922333 -8.147110601433642 11.120159406575796 -7.889367475104416 11.055322131268683 -7.647474563381693 C 10.990484855961572 -7.405581651658977 10.832194050016318 -7.199361497778002 10.61528443032716 -7.074196527050375 C 10.16399354237291 -6.8144206108410135 9.587580917277512 -6.969100145556988 9.326975408550167 -7.419912480141907 C 9.201345265619338 -7.636692468174184 9.167192162674784 -7.894570382440179 9.23206067413533 -8.136579829042972 C 9.296929185595877 -8.378589275645776 9.455481019762685 -8.584814320170578 9.672691361641705 -8.70969892052186 C 9.889246121936537 -8.835260629759786 10.146901321335218 -8.869374779010556 10.388670810732068 -8.804496269241218 C 10.63044030012892 -8.73961775947188 10.836401086237627 -8.581092898513848 10.961000383418684 -8.363982967430323 Z" fill="url(#gradient-8eca9f1b-25a7-40c0-93cf-6614747837fd_9)" transform="matrix(1,0,0,1,0,0)" fill-rule="evenodd"></path></g><g clip-path="url(#SvgjsClipPath1133135d6c3d2b-95aa-4b62-a85f-e07cdb515c66)"><path d=" M 7.855466480006721 -6.570396783442625 C 7.973950078388536 -6.363413899361573 7.903383260509029 -6.099612711026983 7.697382689490512 -5.979429342260522 C 7.489398545872744 -5.866205776510577 7.229149309304816 -5.936473070383913 7.106415248308401 -6.138990551379694 C 6.9931916825584635 -6.346974694997462 7.063458976431799 -6.6072239315653745 7.26597645742758 -6.729957992561797 C 7.473010565450798 -6.8471957481853245 7.735833012270384 -6.776055837767997 7.855466480006721 -6.570396783442633 Z" fill="url(#gradient-8eca9f1b-25a7-40c0-93cf-6614747837fd_10)" transform="matrix(1,0,0,1,0,0)" fill-rule="evenodd"></path></g><g clip-path="url(#SvgjsClipPath1133135d6c3d2b-95aa-4b62-a85f-e07cdb515c66)"><path d=" M 8.625201572146405 -8.047815386397897 C 8.894214701448913 -7.778445538625675 8.894214701448913 -7.342088956219641 8.625201572146405 -7.07271910844742 C 8.355831724374177 -6.803705979144913 7.91947514196815 -6.803705979144913 7.650105294195937 -7.07271910844742 C 7.520184062417679 -7.201697405396921 7.447115284010901 -7.377196420826031 7.447115284010901 -7.560267247422654 C 7.447115284010901 -7.7433380740192845 7.520184062417679 -7.918837089448388 7.650105294195937 -8.047815386397897 C 7.91947514196815 -8.316828515700404 8.355831724374177 -8.316828515700404 8.625201572146405 -8.047815386397897 Z" fill="url(#gradient-8eca9f1b-25a7-40c0-93cf-6614747837fd_11)" transform="matrix(1,0,0,1,0,0)" fill-rule="evenodd"></path></g><g clip-path="url(#SvgjsClipPath1133135d6c3d2b-95aa-4b62-a85f-e07cdb515c66)"><path d=" M 8.942846571781795 -0.8335803481673274 C 8.726291811486934 -0.708018638929401 8.46863661208825 -0.6739044896786304 8.226867122691402 -0.7387829994479649 C 7.985097633294552 -0.8036615092173065 7.779136847185843 -0.9621863701753419 7.6545375500048 -1.1792963012588604 C 7.529254441303325 -1.3957644204239852 7.495139335093028 -1.6531497474621553 7.559703696140022 -1.8947811759299409 C 7.624268057187032 -2.1364126043977265 7.782217993335877 -2.3424777997045982 7.998776084493386 -2.467605323035853 C 8.215556072525679 -2.5932354659667034 8.473433986791665 -2.6273885689112504 8.715443433394459 -2.5625200574506977 C 8.95745287999727 -2.497651545990159 9.163677924522071 -2.3390997118233425 9.288562524873349 -2.1218893699443218 C 9.413722916337166 -1.9052420657761324 9.44761308835371 -1.6477219978287039 9.382765921351726 -1.4060693071204433 C 9.31791875434974 -1.164416616412181 9.15965543277459 -0.9584606740386725 8.942846571781795 -0.8335803481673274 Z" fill="url(#gradient-8eca9f1b-25a7-40c0-93cf-6614747837fd_12)" transform="matrix(1,0,0,1,0,0)" fill-rule="evenodd"></path></g><g clip-path="url(#SvgjsClipPath1133135d6c3d2b-95aa-4b62-a85f-e07cdb515c66)"><path d=" M 7.150737806397067 -3.9391142515792987 C 6.943754922315999 -3.820630653197476 6.679953733981416 -3.8911974710769828 6.55977036521494 -4.097198042095508 C 6.446546799465003 -4.305182185713284 6.516814093338354 -4.565431422281196 6.719331574334119 -4.688165483277619 C 6.927315717951887 -4.801389049027564 7.18756495451983 -4.731121755154228 7.310299015516231 -4.528604274158448 C 7.427536771139758 -4.321570166135199 7.3563968607224295 -4.058747719315628 7.150737806397067 -3.9391142515792987 Z" fill="url(#gradient-8eca9f1b-25a7-40c0-93cf-6614747837fd_13)" transform="matrix(1,0,0,1,0,0)" fill-rule="evenodd"></path></g><g clip-path="url(#SvgjsClipPath1133135d6c3d2b-95aa-4b62-a85f-e07cdb515c66)"><path d=" M 8.625201572146405 -3.1723339966455155 C 8.355831724374177 -2.903320867343009 7.91947514196815 -2.903320867343009 7.650105294195937 -3.1723339966455155 C 7.520184062417679 -3.301312293595016 7.447115284010901 -3.4768113090241277 7.447115284010901 -3.65988213562075 C 7.447115284010901 -3.84295296221738 7.520184062417679 -4.0184519776464835 7.650105294195937 -4.147430274595992 C 7.91947514196815 -4.416443403898499 8.355831724374177 -4.416443403898499 8.625201572146405 -4.147430274595992 C 8.894214701448913 -3.8780604268237706 8.894214701448913 -3.441703844417737 8.625201572146405 -3.1723339966455155 Z" fill="url(#gradient-8eca9f1b-25a7-40c0-93cf-6614747837fd_14)" transform="matrix(1,0,0,1,0,0)" fill-rule="evenodd"></path></g><g clip-path="url(#SvgjsClipPath1133135d6c3d2b-95aa-4b62-a85f-e07cdb515c66)"><path d=" M 11.51207752232101 -4.181410902463969 C 11.447330834222242 -3.9393883942275796 11.289038779499771 -3.7330266575066755 11.0720625849284 -3.6077734774986787 C 10.855086390357014 -3.482520297490689 10.597221619779889 -3.4486484645622486 10.355258756207013 -3.5136176939281842 C 9.851846062532458 -3.649107979994734 9.553546381788077 -4.166998556542069 9.688942966274206 -4.670436460042158 C 9.824453415002543 -5.173112175369481 10.341324797102747 -5.471205517220107 10.844284313785247 -5.336752249974979 C 11.347557990476002 -5.201896489951951 11.646431569865904 -4.684818748618104 11.51207752232101 -4.181410902463969 Z" fill="url(#gradient-8eca9f1b-25a7-40c0-93cf-6614747837fd_15)" transform="matrix(1,0,0,1,0,0)" fill-rule="evenodd"></path></g><g clip-path="url(#SvgjsClipPath1133135d6c3d2b-95aa-4b62-a85f-e07cdb515c66)"><path d=" M 8.04900831699387 -5.10922978511987 C 7.983577110428089 -4.87932167660379 7.747620946006495 -4.742715476149202 7.51566020132703 -4.800449297102216 C 7.285752092810928 -4.865880503668019 7.149145892356333 -5.101836668089591 7.206879713309354 -5.333797412769078 C 7.2723109198751645 -5.56370552128515 7.508267084296744 -5.700311721739745 7.7402278289762085 -5.642577900786732 C 7.970135937492295 -5.577146694220929 8.106742137946892 -5.3411905297993565 8.04900831699387 -5.10922978511987 Z" fill="url(#gradient-8eca9f1b-25a7-40c0-93cf-6614747837fd_16)" transform="matrix(1,0,0,1,0,0)" fill-rule="evenodd"></path></g><g clip-path="url(#SvgjsClipPath1133135d6c3d2b-95aa-4b62-a85f-e07cdb515c66)"><path d=" M 9.635755896567828 -5.607119854315793 C 9.634941174687453 -5.226645608015614 9.326276527581111 -4.918641913044411 8.945801408987688 -4.918642785338638 C 8.565326290394324 -4.918641913044411 8.25666164328797 -5.226645608015622 8.255846921407624 -5.607119854315793 C 8.255846927085715 -5.988171206164733 8.564750077701035 -6.297074347574009 8.945801419268854 -6.297074341895903 C 9.326852750555506 -6.297074341895903 9.635755896567797 -5.988171195883613 9.635755896567797 -5.607119854315793 Z" fill="url(#gradient-8eca9f1b-25a7-40c0-93cf-6614747837fd_17)" transform="matrix(1,0,0,1,0,0)" fill-rule="evenodd"></path></g><g clip-path="url(#SvgjsClipPath1133135d6c3d2b-95aa-4b62-a85f-e07cdb515c66)"><path d=" M 4.760274506815424 -0.2825032092650108 C 4.258655020917011 -0.41995241152135243 3.9626925951388903 -0.9372260262183829 4.098390972691481 -1.4393219753789843 C 4.233901421419788 -1.9419976907063088 4.750772803519991 -2.2400910325569416 5.253732320202492 -2.1056377653118137 C 5.495643249036874 -2.0412221506025148 5.701993078777776 -1.883220246090202 5.827269665058876 -1.6664806654002966 C 5.9525462513399905 -1.449741084710391 5.986458047314143 -1.1920691146449176 5.921525528738269 -0.9502964178007947 C 5.857185976819062 -0.7070630995519789 5.69827470576735 -0.4996466561499595 5.4801679973230994 -0.3742214243219735 C 5.262061288878818 -0.24879619249397322 5.002862835344769 -0.2157729469484373 4.760274506815424 -0.2825032092650108 Z" fill="url(#gradient-8eca9f1b-25a7-40c0-93cf-6614747837fd_18)" transform="matrix(1,0,0,1,0,0)" fill-rule="evenodd"></path></g><g clip-path="url(#SvgjsClipPath1133135d6c3d2b-95aa-4b62-a85f-e07cdb515c66)"><path d=" M 5.688093389471334 -3.745572414592158 C 5.458185280955246 -3.811003621157961 5.321579080500651 -4.046959785579533 5.379312901453672 -4.278920530259012 C 5.444744108019468 -4.508828638775084 5.680700272441047 -4.645434839229679 5.912661017120511 -4.587701018276658 C 6.142569125636614 -4.522269811710863 6.279175326091209 -4.286313647289283 6.221441505138189 -4.054352902609804 C 6.156010298572377 -3.824444794093732 5.9200541341507975 -3.6878385936391442 5.688093389471334 -3.745572414592158 Z" fill="url(#gradient-8eca9f1b-25a7-40c0-93cf-6614747837fd_19)" transform="matrix(1,0,0,1,0,0)" fill-rule="evenodd"></path></g><g clip-path="url(#SvgjsClipPath1133135d6c3d2b-95aa-4b62-a85f-e07cdb515c66)"><path d=" M 6.187460877270219 -2.1588248350182067 C 6.0043532644072295 -2.1584314768075004 5.828631999380013 -2.2309965777006013 5.699155065876266 -2.360473511204349 C 5.569678132372504 -2.4899504447080965 5.497113031479403 -2.665671709735312 5.497506389690109 -2.8487793225983165 C 5.497113031479388 -3.0318869354612685 5.569678132372488 -3.207608200488492 5.69915506587622 -3.3370851339922467 C 5.828631999379968 -3.4665620674960023 6.004353264407183 -3.5391271683891183 6.187460877270189 -3.538733810178419 C 6.567935123570383 -3.5379190882980582 6.875938818541593 -3.229254441191725 6.875937946247374 -2.8487793225983165 C 6.875938818524873 -2.468304203974581 6.567935123540109 -2.1596395568817854 6.1874608772399 -2.158824835018139 Z" fill="url(#gradient-8eca9f1b-25a7-40c0-93cf-6614747837fd_20)" transform="matrix(1,0,0,1,0,0)" fill-rule="evenodd"></path></g><g clip-path="url(#SvgjsClipPath1133135d6c3d2b-95aa-4b62-a85f-e07cdb515c66)"><path d=" M 1.412443952518799 -2.8517341598042183 C 1.2872144437041988 -3.068606525800905 1.2532849293616877 -3.3263496521301317 1.3181222046687995 -3.5682425638528548 C 1.3829594799759264 -3.8101354755755636 1.541250285921166 -4.016355629456539 1.7581599056103236 -4.141520600184174 C 2.2094507935645877 -4.401296516393527 2.7858634186600026 -4.246616981677553 3.046468927387317 -3.795804647092634 C 3.3074980577414377 -3.3445709362150513 3.153392488077502 -2.767171097946317 2.702230392898732 -2.506018206712678 C 2.485358026902075 -2.380788697898085 2.227614900572826 -2.3468591835555817 1.98572198885011 -2.4116964588627017 C 1.7438290771274092 -2.4765337341698217 1.5376089232464416 -2.6348245401150603 1.412443952518799 -2.8517341598042183 Z" fill="url(#gradient-8eca9f1b-25a7-40c0-93cf-6614747837fd_21)" transform="matrix(1,0,0,1,0,0)" fill-rule="evenodd"></path></g><g clip-path="url(#SvgjsClipPath1133135d6c3d2b-95aa-4b62-a85f-e07cdb515c66)"><path d=" M 4.516500437327823 -4.649752599600786 C 4.403276871577871 -4.857736743218555 4.473544165451222 -5.117985979786467 4.676061646446987 -5.24072004078289 C 4.884045790064755 -5.353943606532835 5.144295026632698 -5.283676312659499 5.267029087629114 -5.081158831663719 C 5.380252653379051 -4.8731746880459506 5.309985359505699 -4.612925451478038 5.107467878509934 -4.490191390481615 C 4.899483734892166 -4.376967824731663 4.639234498324223 -4.447235118604999 4.516500437327823 -4.649752599600779 Z" fill="url(#gradient-8eca9f1b-25a7-40c0-93cf-6614747837fd_22)" transform="matrix(1,0,0,1,0,0)" fill-rule="evenodd"></path></g><g clip-path="url(#SvgjsClipPath1133135d6c3d2b-95aa-4b62-a85f-e07cdb515c66)"><path d=" M 3.7482427637910782 -3.1723339966455155 C 3.479229634488571 -3.441703844417737 3.479229634488571 -3.8780604268237706 3.7482427637910782 -4.147430274595992 C 4.017612611563306 -4.416443403898499 4.453969193969333 -4.416443403898499 4.723339041741562 -4.147430274595992 C 4.992352171044069 -3.8780604268237706 4.992352171044069 -3.441703844417737 4.723339041741562 -3.1723339966455155 C 4.453969193969333 -2.903320867343009 4.017612611563306 -2.903320867343009 3.7482427637910782 -3.1723339966455155 Z" fill="url(#gradient-8eca9f1b-25a7-40c0-93cf-6614747837fd_23)" transform="matrix(1,0,0,1,0,0)" fill-rule="evenodd"></path></g></g><g><path d=" M 0.79425 0.2317499999999999 Q 0.9195 0.2984999999999999 0.987 0.41849999999999987 Q 1.0545 0.5384999999999999 1.0545 0.693 Q 1.0545 0.8459999999999999 0.9862500000000001 0.966 Q 0.918 1.0859999999999999 0.7927500000000001 1.15425 Q 0.6675 1.2225 0.5025000000000001 1.2225 L 0.084 1.2225 L 0.084 0.1649999999999998 L 0.5025000000000001 0.1649999999999998 Q 0.669 0.1649999999999998 0.79425 0.2317499999999999 M 0.6825 0.8924999999999998 Q 0.756 0.8219999999999998 0.756 0.693 Q 0.756 0.5624999999999999 0.6825 0.49124999999999985 Q 0.609 0.41999999999999993 0.48 0.41999999999999993 L 0.378 0.41999999999999993 L 0.378 0.9629999999999999 L 0.48 0.9629999999999999 Q 0.609 0.9629999999999999 0.6825 0.8924999999999998 M 1.9844780273437501 0.861 L 1.4279780273437501 0.861 Q 1.43247802734375 0.9299999999999999 1.4662280273437502 0.9637499999999999 Q 1.4999780273437502 0.9974999999999999 1.5524780273437502 0.9974999999999999 Q 1.6259780273437503 0.9974999999999999 1.6574780273437502 0.9315 L 1.97097802734375 0.9315 Q 1.9514780273437502 1.0185 1.8952280273437503 1.0867499999999999 Q 1.8389780273437502 1.1549999999999998 1.7534780273437502 1.194 Q 1.6679780273437501 1.2329999999999999 1.5644780273437502 1.2329999999999999 Q 1.4399780273437501 1.2329999999999999 1.3432280273437502 1.1804999999999999 Q 1.2464780273437501 1.128 1.1917280273437503 1.0305 Q 1.1369780273437502 0.9329999999999999 1.1369780273437502 0.8009999999999999 Q 1.1369780273437502 0.6689999999999999 1.1909780273437502 0.5722499999999999 Q 1.24497802734375 0.4754999999999999 1.3417280273437502 0.42299999999999993 Q 1.4384780273437503 0.37049999999999994 1.5644780273437502 0.37049999999999994 Q 1.68897802734375 0.37049999999999994 1.78497802734375 0.4214999999999999 Q 1.8809780273437502 0.4724999999999999 1.93497802734375 0.5677499999999999 Q 1.9889780273437503 0.6629999999999999 1.9889780273437503 0.7919999999999999 Q 1.9889780273437503 0.8264999999999999 1.9844780273437501 0.861 M 1.68897802734375 0.7184999999999999 Q 1.68897802734375 0.6644999999999999 1.6529780273437502 0.6337499999999999 Q 1.6169780273437502 0.6029999999999999 1.5629780273437501 0.6029999999999999 Q 1.5089780273437503 0.6029999999999999 1.47447802734375 0.6322499999999999 Q 1.4399780273437501 0.6614999999999999 1.4294780273437502 0.7184999999999999 L 1.68897802734375 0.7184999999999999 M 2.5110197753906247 0.9449999999999998 L 2.668519775390625 0.3809999999999999 L 2.982019775390625 0.3809999999999999 L 2.692519775390625 1.2225 L 2.326519775390625 1.2225 L 2.037019775390625 0.3809999999999999 L 2.350519775390625 0.3809999999999999 L 2.5110197753906247 0.9449999999999998 M 3.804 1.3995 L 3.687 1.224 Q 3.6374999999999997 1.2329999999999999 3.5865 1.2329999999999999 Q 3.4379999999999997 1.2329999999999999 3.3135 1.16325 Q 3.189 1.0935 3.11625 0.9697499999999999 Q 3.0435 0.8459999999999999 3.0435 0.69 Q 3.0435 0.5339999999999999 3.11625 0.4102499999999999 Q 3.189 0.28649999999999987 3.3135 0.2174999999999998 Q 3.4379999999999997 0.14849999999999985 3.5865 0.14849999999999985 Q 3.7365 0.14849999999999985 3.8602499999999997 0.2174999999999998 Q 3.984 0.28649999999999987 4.056 0.4102499999999999 Q 4.128 0.5339999999999999 4.128 0.69 Q 4.128 0.8204999999999999 4.0755 0.93075 Q 4.023 1.041 3.9314999999999998 1.1144999999999998 L 4.154999999999999 1.3995 L 3.804 1.3995 M 3.408 0.8872499999999999 Q 3.4724999999999997 0.96 3.5865 0.96 Q 3.699 0.96 3.7642499999999997 0.8864999999999998 Q 3.8295 0.813 3.8295 0.69 Q 3.8295 0.564 3.7642499999999997 0.49124999999999985 Q 3.699 0.41849999999999987 3.5865 0.41849999999999987 Q 3.4724999999999997 0.41849999999999987 3.408 0.49124999999999985 Q 3.3434999999999997 0.564 3.3434999999999997 0.69 Q 3.3434999999999997 0.8144999999999999 3.408 0.8872499999999999 M 4.4257873535156245 1.1804999999999999 Q 4.326037353515625 1.128 4.269037353515625 1.0305 Q 4.212037353515624 0.9329999999999999 4.212037353515624 0.8009999999999999 Q 4.212037353515624 0.6704999999999999 4.269787353515625 0.573 Q 4.327537353515625 0.4754999999999999 4.4272873535156245 0.42299999999999993 Q 4.527037353515625 0.37049999999999994 4.653037353515625 0.37049999999999994 Q 4.7790373535156245 0.37049999999999994 4.878787353515625 0.42299999999999993 Q 4.978537353515625 0.4754999999999999 5.0362873535156245 0.573 Q 5.094037353515625 0.6704999999999999 5.094037353515625 0.8009999999999999 Q 5.094037353515625 0.9315 5.0362873535156245 1.02975 Q 4.978537353515625 1.128 4.878037353515625 1.1804999999999999 Q 4.7775373535156245 1.2329999999999999 4.651537353515625 1.2329999999999999 Q 4.525537353515625 1.2329999999999999 4.4257873535156245 1.1804999999999999 M 4.7542873535156245 0.9322499999999999 Q 4.795537353515625 0.8864999999999998 4.795537353515625 0.8009999999999999 Q 4.795537353515625 0.7154999999999999 4.7542873535156245 0.6704999999999999 Q 4.713037353515625 0.6255 4.653037353515625 0.6255 Q 4.593037353515625 0.6255 4.552537353515625 0.6704999999999999 Q 4.512037353515625 0.7154999999999999 4.512037353515625 0.8009999999999999 Q 4.512037353515625 0.8879999999999999 4.551037353515625 0.9329999999999999 Q 4.5900373535156245 0.978 4.651537353515625 0.978 Q 4.713037353515625 0.978 4.7542873535156245 0.9322499999999999 M 5.211766845703124 0.573 Q 5.259016845703124 0.4754999999999999 5.341516845703125 0.42299999999999993 Q 5.424016845703124 0.37049999999999994 5.524516845703125 0.37049999999999994 Q 5.605516845703125 0.37049999999999994 5.669266845703125 0.4042499999999999 Q 5.7330168457031245 0.43799999999999994 5.769016845703125 0.49649999999999994 L 5.769016845703125 0.11249999999999982 L 6.064516845703125 0.11249999999999982 L 6.064516845703125 1.2225 L 5.769016845703125 1.2225 L 5.769016845703125 1.1055 Q 5.734516845703125 1.164 5.671516845703125 1.1985 Q 5.608516845703125 1.2329999999999999 5.523016845703125 1.2329999999999999 Q 5.422516845703124 1.2329999999999999 5.340766845703125 1.1804999999999999 Q 5.259016845703124 1.128 5.211766845703124 1.02975 Q 5.164516845703124 0.9315 5.164516845703124 0.8009999999999999 Q 5.164516845703124 0.6704999999999999 5.211766845703124 0.573 M 5.726266845703124 0.6734999999999999 Q 5.682016845703124 0.6269999999999999 5.617516845703125 0.6269999999999999 Q 5.551516845703125 0.6269999999999999 5.508016845703125 0.67275 Q 5.464516845703125 0.7184999999999999 5.464516845703125 0.8009999999999999 Q 5.464516845703125 0.8819999999999999 5.508016845703125 0.9292499999999999 Q 5.551516845703125 0.9764999999999999 5.617516845703125 0.9764999999999999 Q 5.682016845703124 0.9764999999999999 5.726266845703124 0.9299999999999999 Q 5.770516845703125 0.8835 5.770516845703125 0.8009999999999999 Q 5.770516845703125 0.7199999999999999 5.726266845703124 0.6734999999999999 M 7.030505859374999 0.861 L 6.474005859375 0.861 Q 6.478505859375 0.9299999999999999 6.512255859374999 0.9637499999999999 Q 6.546005859375 0.9974999999999999 6.598505859375 0.9974999999999999 Q 6.672005859375 0.9974999999999999 6.703505859374999 0.9315 L 7.017005859375 0.9315 Q 6.997505859375 1.0185 6.941255859375 1.0867499999999999 Q 6.885005859374999 1.1549999999999998 6.7995058593749995 1.194 Q 6.714005859375 1.2329999999999999 6.6105058593749995 1.2329999999999999 Q 6.486005859375 1.2329999999999999 6.389255859375 1.1804999999999999 Q 6.292505859375 1.128 6.2377558593749995 1.0305 Q 6.183005859374999 0.9329999999999999 6.183005859374999 0.8009999999999999 Q 6.183005859374999 0.6689999999999999 6.2370058593749995 0.5722499999999999 Q 6.291005859375 0.4754999999999999 6.387755859375 0.42299999999999993 Q 6.484505859375 0.37049999999999994 6.6105058593749995 0.37049999999999994 Q 6.735005859375 0.37049999999999994 6.831005859375 0.4214999999999999 Q 6.927005859375 0.4724999999999999 6.981005859374999 0.5677499999999999 Q 7.035005859375 0.6629999999999999 7.035005859375 0.7919999999999999 Q 7.035005859375 0.8264999999999999 7.030505859374999 0.861 M 6.735005859375 0.7184999999999999 Q 6.735005859375 0.6644999999999999 6.699005859374999 0.6337499999999999 Q 6.663005859375 0.6029999999999999 6.609005859374999 0.6029999999999999 Q 6.555005859375 0.6029999999999999 6.520505859375 0.6322499999999999 Q 6.486005859375 0.6614999999999999 6.475505859375 0.7184999999999999 L 6.735005859375 0.7184999999999999 M 7.534516113281249 1.1452499999999999 Q 7.416016113281249 1.0574999999999999 7.40701611328125 0.8939999999999999 L 7.720516113281249 0.8939999999999999 Q 7.725016113281249 0.9494999999999999 7.75351611328125 0.9749999999999999 Q 7.78201611328125 1.0005 7.82701611328125 1.0005 Q 7.8675161132812494 1.0005 7.8937661132812496 0.98025 Q 7.92001611328125 0.96 7.92001611328125 0.9239999999999999 Q 7.92001611328125 0.8775 7.87651611328125 0.8519999999999999 Q 7.83301611328125 0.8264999999999999 7.73551611328125 0.7949999999999999 Q 7.632016113281249 0.7605 7.56826611328125 0.7282499999999998 Q 7.50451611328125 0.696 7.45726611328125 0.6337499999999999 Q 7.41001611328125 0.5714999999999999 7.41001611328125 0.47099999999999986 Q 7.41001611328125 0.3689999999999999 7.461016113281249 0.2962499999999999 Q 7.512016113281249 0.22349999999999992 7.602016113281249 0.18599999999999994 Q 7.69201611328125 0.14849999999999985 7.80601611328125 0.14849999999999985 Q 7.99051611328125 0.14849999999999985 8.10076611328125 0.2347499999999999 Q 8.21101611328125 0.32099999999999995 8.21851611328125 0.47699999999999987 L 7.89901611328125 0.47699999999999987 Q 7.89751611328125 0.42899999999999994 7.8697661132812495 0.4049999999999999 Q 7.842016113281249 0.3809999999999999 7.7985161132812495 0.3809999999999999 Q 7.765516113281249 0.3809999999999999 7.744516113281249 0.40049999999999986 Q 7.723516113281249 0.41999999999999993 7.723516113281249 0.45599999999999985 Q 7.723516113281249 0.4859999999999999 7.746766113281249 0.5077499999999999 Q 7.770016113281249 0.5294999999999999 7.80451611328125 0.5452499999999999 Q 7.839016113281249 0.5609999999999999 7.906516113281249 0.5849999999999999 Q 8.00701611328125 0.6194999999999999 8.07226611328125 0.6532499999999999 Q 8.137516113281249 0.6869999999999999 8.184766113281249 0.7477499999999999 Q 8.232016113281249 0.8084999999999999 8.232016113281249 0.9015 Q 8.232016113281249 0.9959999999999999 8.184766113281249 1.071 Q 8.137516113281249 1.146 8.04826611328125 1.1895 Q 7.959016113281249 1.2329999999999999 7.837516113281249 1.2329999999999999 Q 7.653016113281249 1.2329999999999999 7.534516113281249 1.1452499999999999 M 8.8635087890625 0.972 L 8.8635087890625 1.2225 L 8.736008789062499 1.2225 Q 8.413508789062499 1.2225 8.413508789062499 0.9029999999999999 L 8.413508789062499 0.6255 L 8.310008789062499 0.6255 L 8.310008789062499 0.3809999999999999 L 8.413508789062499 0.3809999999999999 L 8.413508789062499 0.17699999999999982 L 8.7090087890625 0.17699999999999982 L 8.7090087890625 0.3809999999999999 L 8.8620087890625 0.3809999999999999 L 8.8620087890625 0.6255 L 8.7090087890625 0.6255 L 8.7090087890625 0.9075 Q 8.7090087890625 0.942 8.7247587890625 0.9569999999999999 Q 8.740508789062499 0.972 8.778008789062499 0.972 L 8.8635087890625 0.972 M 9.85803955078125 0.3809999999999999 L 9.85803955078125 1.2225 L 9.56253955078125 1.2225 L 9.56253955078125 1.1025 Q 9.52503955078125 1.1595 9.459039550781249 1.19475 Q 9.39303955078125 1.23 9.30753955078125 1.23 Q 9.16053955078125 1.23 9.07578955078125 1.1332499999999999 Q 8.991039550781249 1.0365 8.991039550781249 0.8699999999999999 L 8.991039550781249 0.3809999999999999 L 9.28353955078125 0.3809999999999999 L 9.28353955078125 0.8324999999999999 Q 9.28353955078125 0.9044999999999999 9.321789550781249 0.9457499999999999 Q 9.360039550781249 0.9869999999999999 9.42303955078125 0.9869999999999999 Q 9.48753955078125 0.9869999999999999 9.52503955078125 0.9457499999999999 Q 9.56253955078125 0.9044999999999999 9.56253955078125 0.8324999999999999 L 9.56253955078125 0.3809999999999999 L 9.85803955078125 0.3809999999999999 M 10.023750732421874 0.573 Q 10.071000732421874 0.4754999999999999 10.153500732421874 0.42299999999999993 Q 10.236000732421875 0.37049999999999994 10.336500732421875 0.37049999999999994 Q 10.417500732421875 0.37049999999999994 10.481250732421874 0.4042499999999999 Q 10.545000732421874 0.43799999999999994 10.581000732421874 0.49649999999999994 L 10.581000732421874 0.11249999999999982 L 10.876500732421874 0.11249999999999982 L 10.876500732421874 1.2225 L 10.581000732421874 1.2225 L 10.581000732421874 1.1055 Q 10.546500732421874 1.164 10.483500732421874 1.1985 Q 10.420500732421875 1.2329999999999999 10.335000732421875 1.2329999999999999 Q 10.234500732421875 1.2329999999999999 10.152750732421874 1.1804999999999999 Q 10.071000732421874 1.128 10.023750732421874 1.02975 Q 9.976500732421874 0.9315 9.976500732421874 0.8009999999999999 Q 9.976500732421874 0.6704999999999999 10.023750732421874 0.573 M 10.538250732421874 0.6734999999999999 Q 10.494000732421874 0.6269999999999999 10.429500732421875 0.6269999999999999 Q 10.363500732421874 0.6269999999999999 10.320000732421875 0.67275 Q 10.276500732421875 0.7184999999999999 10.276500732421875 0.8009999999999999 Q 10.276500732421875 0.8819999999999999 10.320000732421875 0.9292499999999999 Q 10.363500732421874 0.9764999999999999 10.429500732421875 0.9764999999999999 Q 10.494000732421874 0.9764999999999999 10.538250732421874 0.9299999999999999 Q 10.582500732421874 0.8835 10.582500732421874 0.8009999999999999 Q 10.582500732421874 0.7199999999999999 10.538250732421874 0.6734999999999999 M 11.06623974609375 0.26024999999999987 Q 11.01898974609375 0.2174999999999998 11.01898974609375 0.1529999999999998 Q 11.01898974609375 0.08699999999999997 11.06623974609375 0.04349999999999987 Q 11.11348974609375 0 11.19148974609375 0 Q 11.267989746093749 0 11.315239746093749 0.04349999999999987 Q 11.362489746093749 0.08699999999999997 11.362489746093749 0.1529999999999998 Q 11.362489746093749 0.2174999999999998 11.315239746093749 0.26024999999999987 Q 11.267989746093749 0.30299999999999994 11.19148974609375 0.30299999999999994 Q 11.11348974609375 0.30299999999999994 11.06623974609375 0.26024999999999987 M 11.33698974609375 0.3809999999999999 L 11.33698974609375 1.2225 L 11.042989746093749 1.2225 L 11.042989746093749 0.3809999999999999 L 11.33698974609375 0.3809999999999999 M 11.66921484375 1.1804999999999999 Q 11.56946484375 1.128 11.51246484375 1.0305 Q 11.455464843749999 0.9329999999999999 11.455464843749999 0.8009999999999999 Q 11.455464843749999 0.6704999999999999 11.51321484375 0.573 Q 11.57096484375 0.4754999999999999 11.67071484375 0.42299999999999993 Q 11.77046484375 0.37049999999999994 11.89646484375 0.37049999999999994 Q 12.022464843749999 0.37049999999999994 12.12221484375 0.42299999999999993 Q 12.22196484375 0.4754999999999999 12.27971484375 0.573 Q 12.337464843749999 0.6704999999999999 12.337464843749999 0.8009999999999999 Q 12.337464843749999 0.9315 12.27971484375 1.02975 Q 12.22196484375 1.128 12.12146484375 1.1804999999999999 Q 12.020964843749999 1.2329999999999999 11.89496484375 1.2329999999999999 Q 11.76896484375 1.2329999999999999 11.66921484375 1.1804999999999999 M 11.99771484375 0.9322499999999999 Q 12.03896484375 0.8864999999999998 12.03896484375 0.8009999999999999 Q 12.03896484375 0.7154999999999999 11.99771484375 0.6704999999999999 Q 11.95646484375 0.6255 11.89646484375 0.6255 Q 11.836464843749999 0.6255 11.79596484375 0.6704999999999999 Q 11.75546484375 0.7154999999999999 11.75546484375 0.8009999999999999 Q 11.75546484375 0.8879999999999999 11.79446484375 0.9329999999999999 Q 11.833464843749999 0.978 11.89496484375 0.978 Q 11.95646484375 0.978 11.99771484375 0.9322499999999999" fill="#000000" fill-rule="nonzero"></path></g><g></g></g><defs><clipPath id="SvgjsClipPath113315"><path d=" M 0.8288636043514757 -10.965717127234548 h 10.715717127234548 v 10.715717127234548 h -10.715717127234548 Z"></path></clipPath><clipPath id="SvgjsClipPath1133135d6c3d2b-95aa-4b62-a85f-e07cdb515c66"><path d=" M 0.8288636043514757 -10.965717127234548 L 11.544580731586024 -10.965717127234548 L 11.544580731586024 -0.25 L 0.8288636043514757 -0.25 Z"></path></clipPath><linearGradient id="gradient-8eca9f1b-25a7-40c0-93cf-6614747837fd_0" x1="0" x2="1" y1="0" y2="1"><stop stop-color="#1381c0" offset="0"></stop><stop stop-color="#166c9e" offset="1"></stop></linearGradient><linearGradient id="gradient-8eca9f1b-25a7-40c0-93cf-6614747837fd_1" x1="0" x2="1" y1="0" y2="1"><stop stop-color="#166795" offset="0"></stop><stop stop-color="#185e86" offset="1"></stop></linearGradient><linearGradient id="gradient-8eca9f1b-25a7-40c0-93cf-6614747837fd_2" x1="0" x2="1" y1="0" y2="1"><stop stop-color="#156fa2" offset="0"></stop><stop stop-color="#17608a" offset="1"></stop></linearGradient><linearGradient id="gradient-8eca9f1b-25a7-40c0-93cf-6614747837fd_3" x1="0" x2="1" y1="0" y2="1"><stop stop-color="#1574ab" offset="0"></stop><stop stop-color="#176089" offset="1"></stop></linearGradient><linearGradient id="gradient-8eca9f1b-25a7-40c0-93cf-6614747837fd_4" x1="0" x2="1" y1="0" y2="1"><stop stop-color="#17638e" offset="0"></stop><stop stop-color="#185a7f" offset="1"></stop></linearGradient><linearGradient id="gradient-8eca9f1b-25a7-40c0-93cf-6614747837fd_5" x1="0" x2="1" y1="0" y2="1"><stop stop-color="#156fa2" offset="0"></stop><stop stop-color="#17608a" offset="1"></stop></linearGradient><linearGradient id="gradient-8eca9f1b-25a7-40c0-93cf-6614747837fd_6" x1="0" x2="1" y1="0" y2="1"><stop stop-color="#1284c5" offset="0"></stop><stop stop-color="#1570a4" offset="1"></stop></linearGradient><linearGradient id="gradient-8eca9f1b-25a7-40c0-93cf-6614747837fd_7" x1="0" x2="1" y1="0" y2="1"><stop stop-color="#166897" offset="0"></stop><stop stop-color="#185f88" offset="1"></stop></linearGradient><linearGradient id="gradient-8eca9f1b-25a7-40c0-93cf-6614747837fd_8" x1="0" x2="1" y1="0" y2="1"><stop stop-color="#1475ac" offset="0"></stop><stop stop-color="#166694" offset="1"></stop></linearGradient><linearGradient id="gradient-8eca9f1b-25a7-40c0-93cf-6614747837fd_9" x1="0" x2="1" y1="0" y2="1"><stop stop-color="#185a80" offset="0"></stop><stop stop-color="#1b465f" offset="1"></stop></linearGradient><linearGradient id="gradient-8eca9f1b-25a7-40c0-93cf-6614747837fd_10" x1="0" x2="1" y1="0" y2="1"><stop stop-color="#185a80" offset="0"></stop><stop stop-color="#195171" offset="1"></stop></linearGradient><linearGradient id="gradient-8eca9f1b-25a7-40c0-93cf-6614747837fd_11" x1="0" x2="1" y1="0" y2="1"><stop stop-color="#17608a" offset="0"></stop><stop stop-color="#195172" offset="1"></stop></linearGradient><linearGradient id="gradient-8eca9f1b-25a7-40c0-93cf-6614747837fd_12" x1="0" x2="1" y1="0" y2="1"><stop stop-color="#1b4158" offset="0"></stop><stop stop-color="#1e2d37" offset="1"></stop></linearGradient><linearGradient id="gradient-8eca9f1b-25a7-40c0-93cf-6614747837fd_13" x1="0" x2="1" y1="0" y2="1"><stop stop-color="#195273" offset="0"></stop><stop stop-color="#1a4964" offset="1"></stop></linearGradient><linearGradient id="gradient-8eca9f1b-25a7-40c0-93cf-6614747837fd_14" x1="0" x2="1" y1="0" y2="1"><stop stop-color="#1a4b67" offset="0"></stop><stop stop-color="#1c3c4f" offset="1"></stop></linearGradient><linearGradient id="gradient-8eca9f1b-25a7-40c0-93cf-6614747837fd_15" x1="0" x2="1" y1="0" y2="1"><stop stop-color="#1b455d" offset="0"></stop><stop stop-color="#1e313c" offset="1"></stop></linearGradient><linearGradient id="gradient-8eca9f1b-25a7-40c0-93cf-6614747837fd_16" x1="0" x2="1" y1="0" y2="1"><stop stop-color="#195475" offset="0"></stop><stop stop-color="#1a4b66" offset="1"></stop></linearGradient><linearGradient id="gradient-8eca9f1b-25a7-40c0-93cf-6614747837fd_17" x1="0" x2="1" y1="0" y2="1"><stop stop-color="#195172" offset="0"></stop><stop stop-color="#1b4359" offset="1"></stop></linearGradient><linearGradient id="gradient-8eca9f1b-25a7-40c0-93cf-6614747837fd_18" x1="0" x2="1" y1="0" y2="1"><stop stop-color="#195272" offset="0"></stop><stop stop-color="#1c3e51" offset="1"></stop></linearGradient><linearGradient id="gradient-8eca9f1b-25a7-40c0-93cf-6614747837fd_19" x1="0" x2="1" y1="0" y2="1"><stop stop-color="#18587c" offset="0"></stop><stop stop-color="#1a4f6d" offset="1"></stop></linearGradient><linearGradient id="gradient-8eca9f1b-25a7-40c0-93cf-6614747837fd_20" x1="0" x2="1" y1="0" y2="1"><stop stop-color="#195272" offset="0"></stop><stop stop-color="#1b4359" offset="1"></stop></linearGradient><linearGradient id="gradient-8eca9f1b-25a7-40c0-93cf-6614747837fd_21" x1="0" x2="1" y1="0" y2="1"><stop stop-color="#166c9d" offset="0"></stop><stop stop-color="#19587c" offset="1"></stop></linearGradient><linearGradient id="gradient-8eca9f1b-25a7-40c0-93cf-6614747837fd_22" x1="0" x2="1" y1="0" y2="1"><stop stop-color="#17608a" offset="0"></stop><stop stop-color="#19577b" offset="1"></stop></linearGradient><linearGradient id="gradient-8eca9f1b-25a7-40c0-93cf-6614747837fd_23" x1="0" x2="1" y1="0" y2="1"><stop stop-color="#17608a" offset="0"></stop><stop stop-color="#195172" offset="1"></stop></linearGradient></defs></svg>